name rise31.4854peak64.571fall78.6902.mot
datacolumns 19
datarows 32
range 9.07163900000000 9.12330500000000
endheader
time	ground_force1_vx	ground_force1_vy	ground_force1_vz	ground_force1_px	ground_force1_py	ground_force1_pz	ground_force2_vx	ground_force2_vy	ground_force2_vz	ground_force2_px	ground_force2_py	ground_force2_pz	ground_torque1_x	ground_torque1_y	ground_torque1_z	ground_torque2_x	ground_torque2_y	ground_torque2_z	
9.07163900000000	-46.90852500000000	823.68595600000003	56.86000100000000	0.09918300000000	0.00000000000000	0.10034300000000	-11.11771500000000	53.14573600000000	10.21473100000000	0.33658500000000	0.00000000000000	-0.06625600000000	0.00000000000000	22.38969300000000	0.00000000000000	0.00000000000000	5.92980300000000	0.00000000000000	
9.07330500000000	-46.88156700000000	820.89890700000001	56.58092300000000	0.09868400000000	0.00000000000000	0.10024300000000	-11.86121800000000	59.51526900000000	11.15026300000000	0.34223100000000	0.00000000000000	-0.06645100000000	0.00000000000000	22.19922700000000	0.00000000000000	0.00000000000000	6.58204000000000	0.00000000000000	
9.07496900000000	-46.85922800000000	817.97796600000004	56.27030600000000	0.09820700000000	0.00000000000000	0.10013700000000	-12.43184000000000	65.70346200000000	11.98110700000000	0.34749500000000	0.00000000000000	-0.06664200000000	0.00000000000000	22.00727200000000	0.00000000000000	0.00000000000000	7.18884300000000	0.00000000000000	
9.07663400000000	-46.84298000000000	814.92538800000000	55.92818300000000	0.09775100000000	0.00000000000000	0.10002500000000	-12.82334900000000	71.67053799999999	12.69923800000000	0.35241000000000	0.00000000000000	-0.06682900000000	0.00000000000000	21.81421700000000	0.00000000000000	0.00000000000000	7.74297300000000	0.00000000000000	
9.07831100000000	-46.83428100000000	811.74349099999995	55.55466300000000	0.09731600000000	0.00000000000000	0.09990600000000	-13.03780100000000	77.40272200000000	13.30294100000000	0.35700300000000	0.00000000000000	-0.06701400000000	0.00000000000000	21.62044000000000	0.00000000000000	0.00000000000000	8.24083100000000	0.00000000000000	
9.07996700000000	-46.83457700000000	808.43465000000003	55.14993600000000	0.09690200000000	0.00000000000000	0.09978200000000	-13.08423300000000	82.90945300000000	13.79596100000000	0.36129700000000	0.00000000000000	-0.06719900000000	0.00000000000000	21.42631500000000	0.00000000000000	0.00000000000000	8.68213400000000	0.00000000000000	
9.08163400000000	-46.84529100000000	805.00127199999997	54.71426400000000	0.09650700000000	0.00000000000000	0.09965100000000	-12.97701600000000	88.21916400000001	14.18635400000000	0.36531200000000	0.00000000000000	-0.06738600000000	0.00000000000000	21.23220300000000	0.00000000000000	0.00000000000000	9.06936600000000	0.00000000000000	
9.08331400000000	-46.86781200000000	801.44578300000001	54.24798900000000	0.09613000000000	0.00000000000000	0.09951500000000	-12.73404500000000	93.37423300000000	14.48518500000000	0.36906800000000	0.00000000000000	-0.06757400000000	0.00000000000000	21.03845700000000	0.00000000000000	0.00000000000000	9.40708800000000	0.00000000000000	
9.08496900000000	-46.90349500000000	797.77061100000003	53.75152200000000	0.09577200000000	0.00000000000000	0.09937200000000	-12.37496100000000	98.42566200000000	14.70520300000000	0.37257800000000	0.00000000000000	-0.06776600000000	0.00000000000000	20.84541700000000	0.00000000000000	0.00000000000000	9.70120100000000	0.00000000000000	
9.08663100000000	-46.95364500000000	793.97817299999997	53.22534900000000	0.09542900000000	0.00000000000000	0.09922300000000	-11.91953800000000	103.42796500000000	14.85961000000000	0.37585600000000	0.00000000000000	-0.06796000000000	0.00000000000000	20.65341100000000	0.00000000000000	0.00000000000000	9.95821500000000	0.00000000000000	
9.08830300000000	-47.01951700000000	790.07085500000005	52.67002500000000	0.09510200000000	0.00000000000000	0.09906800000000	-11.38632400000000	108.43463900000000	14.96100300000000	0.37891500000000	0.00000000000000	-0.06816000000000	0.00000000000000	20.46275400000000	0.00000000000000	0.00000000000000	10.18460500000000	0.00000000000000	
9.08996800000000	-47.10230300000000	786.05099900000005	52.08617300000000	0.09478800000000	0.00000000000000	0.09890700000000	-10.79161900000000	113.49447499999999	15.02054900000000	0.38176600000000	0.00000000000000	-0.06836300000000	0.00000000000000	20.27374600000000	0.00000000000000	0.00000000000000	10.38626700000000	0.00000000000000	
9.09163100000000	-47.20312600000000	781.92089099999998	51.47448000000000	0.09448800000000	0.00000000000000	0.09874000000000	-10.14879500000000	118.64883600000000	15.04740200000000	0.38441800000000	0.00000000000000	-0.06857200000000	0.00000000000000	20.08667000000000	0.00000000000000	0.00000000000000	10.56812800000000	0.00000000000000	
9.09338300000000	-47.32303300000000	777.68274199999996	50.83569900000000	0.09419800000000	0.00000000000000	0.09856700000000	-9.46795800000000	123.92995300000000	15.04838500000000	0.38688100000000	0.00000000000000	-0.06878600000000	0.00000000000000	19.90179700000000	0.00000000000000	0.00000000000000	10.73388800000000	0.00000000000000	
9.09496400000000	-47.46298700000000	773.33867699999996	50.17063900000000	0.09391700000000	0.00000000000000	0.09838800000000	-8.75590700000000	129.36017400000000	15.02789100000000	0.38916300000000	0.00000000000000	-0.06900600000000	0.00000000000000	19.71937700000000	0.00000000000000	0.00000000000000	10.88591300000000	0.00000000000000	
9.09663200000000	-47.62385900000000	768.89072399999998	49.48016700000000	0.09364500000000	0.00000000000000	0.09820400000000	-8.01635300000000	134.95205799999999	14.98799400000000	0.39127100000000	0.00000000000000	-0.06923100000000	0.00000000000000	19.53964500000000	0.00000000000000	0.00000000000000	11.02525200000000	0.00000000000000	
9.09830500000000	-47.80642400000000	764.34079999999994	48.76520400000000	0.09337900000000	0.00000000000000	0.09801500000000	-7.25032500000000	140.70914700000000	14.92870400000000	0.39321400000000	0.00000000000000	-0.06946200000000	0.00000000000000	19.36282000000000	0.00000000000000	0.00000000000000	11.15175100000000	0.00000000000000	
9.09996700000000	-48.01135100000000	759.69070099999999	48.02672000000000	0.09311800000000	0.00000000000000	0.09782000000000	-6.45669600000000	146.62723199999999	14.84833600000000	0.39499600000000	0.00000000000000	-0.06969800000000	0.00000000000000	19.18909800000000	0.00000000000000	0.00000000000000	11.26424500000000	0.00000000000000	
9.10163400000000	-48.23919800000000	754.94209499999999	47.26573200000000	0.09285900000000	0.00000000000000	0.09762000000000	-5.63277700000000	152.69593900000001	14.74393000000000	0.39662600000000	0.00000000000000	-0.06994100000000	0.00000000000000	19.01866200000000	0.00000000000000	0.00000000000000	11.36079500000000	0.00000000000000	
9.10330300000000	-48.49040500000000	750.09650699999997	46.48330000000000	0.09260200000000	0.00000000000000	0.09741600000000	-4.77491700000000	158.90043800000001	14.61170200000000	0.39810800000000	0.00000000000000	-0.07018900000000	0.00000000000000	18.85167200000000	0.00000000000000	0.00000000000000	11.43894700000000	0.00000000000000	
9.10496900000000	-48.76529100000000	745.15531499999997	45.68052200000000	0.09234500000000	0.00000000000000	0.09720600000000	-3.87905800000000	165.22314000000000	14.44746400000000	0.39944900000000	0.00000000000000	-0.07044300000000	0.00000000000000	18.68827000000000	0.00000000000000	0.00000000000000	11.49598600000000	0.00000000000000	
9.10662900000000	-49.06404600000000	740.11974699999996	44.85853300000000	0.09208500000000	0.00000000000000	0.09699300000000	-2.94122600000000	171.64526499999999	14.24700100000000	0.40065500000000	0.00000000000000	-0.07070300000000	0.00000000000000	18.52857800000000	0.00000000000000	0.00000000000000	11.52916800000000	0.00000000000000	
9.10829800000000	-49.38672700000000	734.99086899999998	44.01849600000000	0.09182100000000	0.00000000000000	0.09677500000000	-1.95791800000000	178.14816300000001	14.00639300000000	0.40172900000000	0.00000000000000	-0.07096700000000	0.00000000000000	18.37269900000000	0.00000000000000	0.00000000000000	11.53591400000000	0.00000000000000	
9.10996300000000	-49.73325500000000	729.76958300000001	43.16160500000000	0.09155200000000	0.00000000000000	0.09655300000000	-0.92639200000000	184.71438000000001	13.72224500000000	0.40267900000000	0.00000000000000	-0.07123700000000	0.00000000000000	18.22071400000000	0.00000000000000	0.00000000000000	11.51397100000000	0.00000000000000	
9.11163800000000	-50.10340900000000	724.45662700000003	42.28907500000000	0.09127600000000	0.00000000000000	0.09632700000000	0.15516000000000	191.32839700000000	13.39185600000000	0.40350800000000	0.00000000000000	-0.07151200000000	0.00000000000000	18.07268400000000	0.00000000000000	0.00000000000000	11.46151300000000	0.00000000000000	
9.11330700000000	-50.49682700000000	719.05257300000005	41.40214200000000	0.09099100000000	0.00000000000000	0.09609700000000	1.28752700000000	197.97709200000000	13.01330200000000	0.40422200000000	0.00000000000000	-0.07179100000000	0.00000000000000	17.92865100000000	0.00000000000000	0.00000000000000	11.37720200000000	0.00000000000000	
9.11497000000000	-50.91299900000000	713.55782499999998	40.50205600000000	0.09069500000000	0.00000000000000	0.09586500000000	2.47048500000000	204.64991800000001	12.58545400000000	0.40482400000000	0.00000000000000	-0.07207500000000	0.00000000000000	17.78863400000000	0.00000000000000	0.00000000000000	11.26021400000000	0.00000000000000	
9.11664200000000	-51.35126900000000	707.97262300000000	39.59007900000000	0.09038800000000	0.00000000000000	0.09562900000000	3.70287700000000	211.33885599999999	12.10795300000000	0.40532100000000	0.00000000000000	-0.07236300000000	0.00000000000000	17.65263200000000	0.00000000000000	0.00000000000000	11.11022000000000	0.00000000000000	
9.11829700000000	-51.81083100000000	702.29704700000002	38.66748300000000	0.09006700000000	0.00000000000000	0.09539100000000	4.98273000000000	218.03818699999999	11.58112700000000	0.40571600000000	0.00000000000000	-0.07265500000000	0.00000000000000	17.52062200000000	0.00000000000000	0.00000000000000	10.92734300000000	0.00000000000000	
9.11996900000000	-52.29073300000000	696.53102300000000	37.73553900000000	0.08973200000000	0.00000000000000	0.09515100000000	6.30741500000000	224.74414100000001	11.00589100000000	0.40601400000000	0.00000000000000	-0.07295000000000	0.00000000000000	17.39255900000000	0.00000000000000	0.00000000000000	10.71210300000000	0.00000000000000	
9.12163200000000	-52.78987200000000	690.67432699999995	36.79552300000000	0.08938100000000	0.00000000000000	0.09490800000000	7.67381300000000	231.45446899999999	10.38363600000000	0.40621900000000	0.00000000000000	-0.07324900000000	0.00000000000000	17.26837800000000	0.00000000000000	0.00000000000000	10.46534300000000	0.00000000000000	
9.12330500000000	-53.30700100000000	684.72659999999996	35.84870500000000	0.08901200000000	0.00000000000000	0.09466300000000	9.07848500000000	238.16800100000000	9.71610300000000	0.40633500000000	0.00000000000000	-0.07355000000000	0.00000000000000	17.14799200000000	0.00000000000000	0.00000000000000	10.18815800000000	0.00000000000000	
